<?xml version="1.0" standalone="no"?>
<!DOCTYPE svg PUBLIC "-//W3C//DTD SVG 1.1//EN" "http://www.w3.org/Graphics/SVG/1.1/DTD/svg11.dtd" >
<svg>
<metadata>
Created by FontForge 20090914 at Mon Sep  9 21:25:41 2013
 By www-data
Copyright (c) 2011 by Tyler Finck. All rights reserved.
</metadata>
<defs>
<font id="OstrichSans-Black" horiz-adv-x="833" >
  <font-face 
    font-family="Ostrich Sans"
    font-weight="900"
    font-stretch="normal"
    units-per-em="1000"
    panose-1="2 0 5 8 0 0 0 2 0 4"
    ascent="750"
    descent="-250"
    x-height="737"
    cap-height="737"
    bbox="-30 -95 685 739.001"
    underline-thickness="50"
    underline-position="-50"
    unicode-range="U+0020-U+2122"
  />
<missing-glyph horiz-adv-x="308" 
 />
    <glyph glyph-name=".notdef" horiz-adv-x="308" 
 />
    <glyph glyph-name="space" unicode=" " horiz-adv-x="308" 
 />
    <glyph glyph-name="space" unicode="&#xa0;" horiz-adv-x="308" 
 />
    <glyph glyph-name="exclam" unicode="!" horiz-adv-x="146" 
d="M0 739h94v-576h-94v576zM0 2v106h94v-106h-94z" />
    <glyph glyph-name="quotedbl" unicode="&#x22;" horiz-adv-x="283" 
d="M0 586v151h94v-151h-94zM139 737h94v-151h-94v151z" />
    <glyph glyph-name="numbersign" unicode="#" horiz-adv-x="571" 
d="M113 228h-133v95h152l18 94h-139v95h158l44 227h96l-44 -227h77l43 227h96l-43 -227h114v-95h-132l-19 -94h120v-95h-138l-44 -228h-96l44 228h-77l-45 -228h-96zM228 323h77l19 94h-77z" />
    <glyph glyph-name="dollar" unicode="$" horiz-adv-x="356" 
d="M192 401c8.66699 -4 20.0049 -9.83398 34.0049 -17.501s27.333 -18 40 -31s23.667 -29.333 33 -49s14 -43.834 14 -72.501c0 -50 -12.667 -91.333 -38 -124c-18.667 -25.333 -42.334 -42 -71.001 -50v-57h-95v56c-17.333 4.66699 -31.833 11.334 -43.5 20.001
s-20.834 17.334 -27.501 26.001c-25.333 31.333 -38 75.666 -38 132.999v48h94v-48c0 -35.333 6 -60 18 -74c2.66699 -3.33301 7.16699 -7 13.5 -11s16.5 -6 30.5 -6c13.333 0 24.166 3 32.499 9s14.666 13.5 18.999 22.5s7.16602 18.5 8.49902 28.5s2 19 2 27
c0 12.667 -1.66699 23.334 -5 32.001s-7.83301 16 -13.5 22s-12.5 11.333 -20.5 16s-16.667 9.33398 -26 14.001c-9.33301 3.33301 -16.333 6.66602 -21 9.99902c-1.33301 1.33301 -3.16602 2.5 -5.49902 3.5s-4.83301 2.16699 -7.5 3.5l-34 19
c-13.333 7.33301 -26.333 17.666 -39 30.999c-30.667 32.667 -46 73.334 -46 122.001c0 25.333 3.16699 48.5 9.5 69.5s15.166 39.833 26.499 56.5c18 24.667 42.333 42.334 73 53.001v56h95v-55c17.333 -5.33301 31.666 -12.166 42.999 -20.499
s20.666 -16.833 27.999 -25.5c25.333 -32.667 38 -77.334 38 -134.001v-47h-95v47c0 35.333 -5.66699 60.333 -17 75c-3.33301 3.33301 -8.16602 6.83301 -14.499 10.5s-16.5 5.5 -30.5 5.5s-25.167 -3.66699 -33.5 -11s-14.666 -16 -18.999 -26s-7 -20.167 -8 -30.5
s-1.5 -18.166 -1.5 -23.499c0 -12.667 1.66699 -23.334 5 -32.001s8 -16.334 14 -23.001s13.167 -12.667 21.5 -18s17.5 -10.333 27.5 -15c3.33301 -1.33301 6.5 -2.83301 9.5 -4.5s5.83301 -3.5 8.5 -5.5c4 -1.33301 8 -3 12 -5z" />
    <glyph glyph-name="percent" unicode="%" horiz-adv-x="615" 
d="M453 363c16 0 31 -3 45 -9s26 -14.5 36 -25.5s17.833 -24 23.5 -39s8.5 -31.5 8.5 -49.5v-86c0 -18 -2.83301 -34.5 -8.5 -49.5s-13.5 -28 -23.5 -39s-22 -19.5 -36 -25.5s-29 -9 -45 -9c-33.333 0 -60.666 11.5 -81.999 34.5s-32 52.5 -32 88.5v86
c0 36 10.667 65.5 32 88.5s48.666 34.5 81.999 34.5zM472 240c0 19.333 -6.33301 29 -19 29s-19 -9.66699 -19 -29v-86c0 -19.333 6.33301 -29 19 -29s19 9.66699 19 29v86zM227 499c0 -18 -2.83203 -34.5 -8.49902 -49.5s-13.5 -28 -23.5 -39s-22 -19.5 -36 -25.5
s-29.333 -9 -46 -9c-32.667 0 -59.667 11.5 -81 34.5s-32 52.5 -32 88.5v86c0 18 2.83301 34.5 8.5 49.5s13.5 28 23.5 39s22 19.5 36 25.5s29 9 45 9c33.333 0 60.666 -11.5 81.999 -34.5s32 -52.5 32 -88.5v-86zM94.001 499c0 -19.333 6.33301 -29 19 -29
s19 9.66699 19 29v86c0 19.333 -6.33301 29 -19 29s-19 -9.66699 -19 -29v-86zM471.001 739l-273 -737h-101l273 737h101z" />
    <glyph glyph-name="ampersand" unicode="&#x26;" horiz-adv-x="506" 
d="M183 2c-27.333 0 -52.665 5.16699 -75.998 15.5s-43.333 25.166 -60 44.499c-31.333 37.333 -47 83 -47 137c0 26 3.16699 48.833 9.5 68.5s14.666 37 24.999 52s21.833 28.333 34.5 40l38 33.5c2.66699 2 5.16699 4 7.5 6s4.5 4 6.5 6c-6 10 -12.167 21.333 -18.5 34
s-12.166 26.334 -17.499 41.001s-9.83301 29.5 -13.5 44.5s-5.5 30.167 -5.5 45.5c0 49.333 7 87 21 113c20.667 37.333 52.667 56 96 56c47.333 0 80.666 -21.667 99.999 -65c7.33301 -16 11.833 -33.333 13.5 -52s2.5 -36 2.5 -52c0 -28 -3.5 -55.167 -10.5 -81.5
s-17.167 -50.5 -30.5 -72.5l-9 -14c-2.66699 -4 -5.33398 -7.66699 -8.00098 -11l79 -134c1.33301 11.333 2 22.5 2 33.5v30.5v48h95v-48c0 -24.667 -1.5 -53.5 -4.5 -86.5s-10.833 -65.167 -23.5 -96.5l85 -136h-112l-32 50c-38.667 -33.333 -87.667 -50 -147 -50z
M171.001 639c-2.66699 -4.66699 -5.00098 -11.999 -7.00098 -21.999s-3 -25.667 -3 -47c0 -13.333 2.5 -27.666 7.5 -42.999s11.167 -30 18.5 -44c4.66699 11.333 8.66699 24.166 12 38.499s5 30.5 5 48.5v12.5c0 5.66699 -0.333008 11.667 -1 18s-1.5 12.666 -2.5 18.999
s-2.5 11.833 -4.5 16.5c-1.33301 3.33301 -2.66602 5.5 -3.99902 6.5s-4.33301 1.5 -9 1.5s-7.5 -0.333008 -8.5 -1s-2.16699 -2 -3.5 -4zM168 321.001l-31.002 -27.5c-9.33301 -8.33301 -17.166 -17 -23.499 -26s-11.166 -19 -14.499 -30s-5 -23.833 -5 -38.5
c0 -12 1.66699 -24.167 5 -36.5s8.5 -23.333 15.5 -33s16.167 -17.667 27.5 -24s25 -9.5 41 -9.5c42.667 0 75 13.333 97 40l-109 188z" />
    <glyph glyph-name="quotesingle" unicode="'" horiz-adv-x="158" 
d="M0 737h94v-151h-94v151z" />
    <glyph glyph-name="parenleft" unicode="(" horiz-adv-x="206" 
d="M111 1c-4 2.66699 -12 9.66602 -24 20.999s-24.667 31 -38 59c-16.667 34 -29 74.5 -37 121.5s-12 99.833 -12 158.5c0 118 16 211.667 48 281c13.333 28 26 48 38 60s20 19.333 24 22l51 -79c0.666992 0 1.33398 0.333008 2.00098 1l-11 -12.5
c-7.33301 -8.33301 -15.333 -23.166 -24 -44.499s-16.5 -50.5 -23.5 -87.5s-10.5 -83.833 -10.5 -140.5c0 -54 3.33301 -98.833 10 -134.5s14 -64 22 -85s15.667 -36 23 -45s11.666 -14.167 12.999 -15.5z" />
    <glyph glyph-name="parenright" unicode=")" horiz-adv-x="214" 
d="M52 724c4 -2.66699 12.001 -9.66602 24.001 -20.999s24.667 -31 38 -59c32.667 -68 49 -161.333 49 -280c0 -58.667 -4 -111.5 -12 -158.5s-20.333 -87.833 -37 -122.5c-12.667 -28 -25 -48 -37 -60s-20 -19.333 -24 -22l-51 79
c-0.666992 0 -1.33398 -0.333008 -2.00098 -1l11 12.5c7.33301 8.33301 15.166 23.166 23.499 44.499s16 50.333 23 87s10.5 83.667 10.5 141c0 54 -3.16699 98.833 -9.5 134.5s-13.5 64 -21.5 85s-15.667 36 -23 45s-11.666 14.167 -12.999 15.5z" />
    <glyph glyph-name="asterisk" unicode="*" horiz-adv-x="368" 
d="M328 591l-83 -31l63 -72l-71 -62l-73 82l-73 -82l-71 62l63 72l-83 31l33 88l84 -31v90h94v-90l84 31l33 -88v0z" />
    <glyph glyph-name="plus" unicode="+" horiz-adv-x="457" 
d="M387 417v-94h-146v-147h-95v147h-146v94h146v146h95v-146h146v0z" />
    <glyph glyph-name="comma" unicode="," horiz-adv-x="158" 
d="M94 -87l-94 90v103h94v-193v0v0z" />
    <glyph glyph-name="hyphen" unicode="-" horiz-adv-x="376" 
d="M307 417v-94h-307v94h307v0z" />
    <glyph glyph-name="period" unicode="." horiz-adv-x="186" 
d="M94 0h-94v106h94v-106v0v0z" />
    <glyph glyph-name="slash" unicode="/" horiz-adv-x="417" 
d="M273 737h101l-273 -737h-101l273 737v0z" />
    <glyph glyph-name="zero" unicode="0" horiz-adv-x="376" 
d="M156 0c-53.333 0 -93.666 21.332 -120.999 63.999c-23.333 36.667 -35 86.334 -35 149.001v313c0 63.333 11.667 112.666 35 147.999c27.333 42 67.666 63 120.999 63s93.666 -21 120.999 -63c24 -35.333 36 -84.666 36 -147.999v-313c0 -63.333 -12 -113 -36 -149
c-27.333 -42.667 -67.666 -64 -120.999 -64zM156 642.999c-4 0 -9.5 -0.666992 -16.5 -2s-13.833 -5.66602 -20.5 -12.999s-12.5 -18.833 -17.5 -34.5s-7.5 -38.167 -7.5 -67.5v-313c0 -30 2.5 -53 7.5 -69s10.833 -27.667 17.5 -35s13.5 -11.666 20.5 -12.999
s12.5 -2 16.5 -2s9.5 0.666992 16.5 2s13.833 5.66602 20.5 12.999s12.5 19 17.5 35s7.5 39 7.5 69v313c0 29.333 -2.5 51.833 -7.5 67.5s-10.833 27.167 -17.5 34.5s-13.5 11.666 -20.5 12.999s-12.5 2 -16.5 2z" />
    <glyph glyph-name="one" unicode="1" horiz-adv-x="275" 
d="M118 737h91v-737h-94v566l-42 -58l-73 61l118 168v0z" />
    <glyph glyph-name="two" unicode="2" horiz-adv-x="360" 
d="M313 0l-48.002 -0.00195312h-109h-156v47c0 30.667 2.83301 58.5 8.5 83.5s13.834 49.167 24.501 72.5s23 46.333 37 69l47 73l39 54l25.5 35c7.66699 10.667 14.167 21.5 19.5 32.5s9.5 22.667 12.5 35s4.5 26.5 4.5 42.5c0 6 -0.666992 14.5 -2 25.5
s-4.16602 22 -8.49902 33s-10.5 20.5 -18.5 28.5s-19 12 -33 12c-5.33301 0 -11.5 -0.5 -18.5 -1.5s-13.833 -4.66699 -20.5 -11s-12.167 -16.5 -16.5 -30.5s-6.5 -33.667 -6.5 -59v-48h-94v48c-0 60 12.333 106.667 37 140c9.33301 13.333 23.5 26 42.5 38s44.5 18 76.5 18
c22.667 0 43.5 -4.5 62.5 -13.5s35.167 -21.667 48.5 -38s24 -36.166 32 -59.499s12.333 -49 13 -77h1v-8h-1c-0.666992 -23.333 -3.33398 -44.166 -8.00098 -62.499s-10.667 -35.333 -18 -51s-15.666 -30.334 -24.999 -44.001l-29 -40.5l-18 -24.5
c-6 -8.33301 -12 -17.166 -18 -26.499l-38 -58c-11.333 -17.333 -21 -33.833 -29 -49.5s-14.5 -30.667 -19.5 -45s-8.83301 -29.5 -11.5 -45.5h58h109h48v-94z" />
    <glyph glyph-name="three" unicode="3" horiz-adv-x="360" 
d="M250 363c14.667 -13.333 28.8359 -32.8311 42.5029 -58.498s20.5 -58.834 20.5 -99.501c0 -27.333 -3 -52.5 -9 -75.5s-14.667 -43.5 -26 -61.5c-28.667 -45.333 -69.334 -68 -122.001 -68c-52 0 -92.333 20.667 -121 62c-11.333 18 -20 39.167 -26 63.5s-9 52.5 -9 84.5
v47h94v-47c0 -28 2.16699 -49.167 6.5 -63.5s8.83301 -24.833 13.5 -31.5c3.33301 -5.33301 8 -10.166 14 -14.499s15.333 -6.5 28 -6.5c14.667 0 26.167 5 34.5 15s14.5 21.333 18.5 34s6.5 25 7.5 37s1.5 20.333 1.5 25c0 22 -3.33301 40.333 -10 55
s-14.5 26.5 -23.5 35.5s-18.667 15.5 -29 19.5s-18.833 6 -25.5 6h-47h1v94h46c6.66699 0 15.167 2 25.5 6s20 10.5 29 19.5s16.833 20.833 23.5 35.5s10 33 10 55c0 2.66699 -0.5 10 -1.5 22s-3.5 24.667 -7.5 38s-10.167 25.333 -18.5 36s-19.833 16 -34.5 16
c-4 0 -9.5 -0.666992 -16.5 -2s-13.833 -5.66602 -20.5 -12.999s-12.5 -18.833 -17.5 -34.5s-7.5 -38.167 -7.5 -67.5v-47h-94v47c0 63.333 11.667 112.666 35 147.999c28 42 68.333 63 121 63s93.334 -22.667 122.001 -68c23.333 -36.667 35 -82.667 35 -138
c0 -40.667 -6.83301 -73.834 -20.5 -99.501s-27.834 -45.167 -42.501 -58.5l-5 -5c1.33301 -0.666992 2.16602 -1.33398 2.49902 -2.00098s1.16602 -1.66699 2.49902 -3z" />
    <glyph glyph-name="four" unicode="4" horiz-adv-x="380" 
d="M230 737h86v-737h-94v206h-222v94zM222 300v220l-114 -220h114z" />
    <glyph glyph-name="five" unicode="5" horiz-adv-x="372" 
d="M94 643l0.000976562 -171.999c18.667 8 39.334 12 62.001 12c32.667 0 58.667 -6.5 78 -19.5s33.666 -26.167 42.999 -39.5c24 -35.333 36 -83.666 36 -144.999v-72c0 -54.667 -11.667 -100.334 -35 -137.001c-14 -22.667 -31.5 -40 -52.5 -52s-44.167 -18 -69.5 -18
c-23.333 0 -45 4.66699 -65 14s-37.333 22.666 -52 39.999c-12.667 14.667 -22.334 31 -29.001 49s-10 36 -10 54v16h94v-16c0 -4 1 -9.66699 3 -17s5.5 -14.333 10.5 -21s11.333 -12.5 19 -17.5s17.5 -7.5 29.5 -7.5s22 3.83301 30 11.5s14.333 17.334 19 29.001
s8 24 10 37s3 24.833 3 35.5v72c0 26 -2 46 -6 60s-8.33301 24 -13 30c-3.33301 5.33301 -8 9.83301 -14 13.5s-15.667 5.5 -29 5.5s-23 -2.16699 -29 -6.5s-10.667 -8.5 -14 -12.5c-12.667 -16.667 -19 -41.334 -19 -74.001v-32v-1h-94v1v32v442h94h219v-94h-219z" />
    <glyph glyph-name="six" unicode="6" horiz-adv-x="368" 
d="M156 0c-50.667 0 -90.335 19.332 -119.002 57.999c-24.667 32.667 -37 76.334 -37 131.001v96v1v199c0 73.333 11 131 33 173c13.333 25.333 30.5 44.833 51.5 58.5s44.833 20.5 71.5 20.5c25.333 0 48.166 -4.66699 68.499 -14s37.5 -23.333 51.5 -42
c24.667 -34 37 -77 37 -129v-32h-95v32c0 32.667 -6 56.667 -18 72c-3.33301 4 -8.16602 8.16699 -14.499 12.5s-16.166 6.5 -29.499 6.5c-14 0 -25 -6 -33 -18s-14.167 -26.5 -18.5 -43.5s-7.16602 -34.333 -8.49902 -52s-2 -32.5 -2 -44.5v-7c18 9.33301 38.667 14 62 14
c52.667 0 93 -20 121 -60c24 -35.333 36 -84.333 36 -147v-74c0 -31.333 -3.83301 -60 -11.5 -86s-18.334 -48.333 -32.001 -67s-30.167 -33 -49.5 -43s-40.666 -15 -63.999 -15zM93.999 285.999l-0.000976562 -97.001c0 -33.333 6.33301 -58.333 19 -75
c3.33301 -4 8 -8.33301 14 -13s15.667 -7 29 -7c12 0 22 4 30 12s14.333 18 19 30s8 24.833 10 38.5s3 25.834 3 36.501v74c0 28 -2.33301 49.667 -7 65s-10.167 26.5 -16.5 33.5s-13.166 11.167 -20.499 12.5s-13.333 2 -18 2c-14.667 0 -26 -5.16699 -34 -15.5
s-14 -22 -18 -35s-6.66699 -25.5 -8 -37.5s-2 -20 -2 -24z" />
    <glyph glyph-name="seven" unicode="7" horiz-adv-x="429" 
d="M12 0l271 643h-283v94h387v-89l-272 -648h-103v0z" />
    <glyph glyph-name="eight" unicode="8" horiz-adv-x="388" 
d="M296 357c25.333 -34.667 38 -84.333 38 -149c0 -34 -3.16699 -63.167 -9.5 -87.5s-15.833 -45.166 -28.5 -62.499c-29.333 -38.667 -72.333 -58 -129 -58c-57.333 0 -100.333 19.333 -129 58c-25.333 34 -38 84 -38 150s12.667 115.667 38 149c1.33301 2 2.83301 4 4.5 6
s3.16699 4 4.5 6c-2 2 -5 5.66699 -9 11c-25.333 33.333 -38 83.333 -38 150c0 66 12.667 115.667 38 149c28 38.667 71 58 129 58c57.333 0 100.333 -19.333 129 -58c25.333 -34.667 38 -84.334 38 -149.001c0 -65.333 -12.667 -115.333 -38 -150c-4 -5.33301 -7 -9 -9 -11
zM167 643.001c-8 0 -16.333 -0.666992 -25 -2s-16.5 -5.5 -23.5 -12.5s-12.833 -18.167 -17.5 -33.5s-7 -37 -7 -65c0 -28.667 2.33301 -50.667 7 -66s10.5 -26.5 17.5 -33.5s14.833 -11.167 23.5 -12.5s17 -2 25 -2s16.167 0.666992 24.5 2s16 5.5 23 12.5
s12.833 18.167 17.5 33.5s7 37.333 7 66c0 28 -2.33301 49.667 -7 65s-10.5 26.5 -17.5 33.5s-14.667 11.167 -23 12.5s-16.5 2 -24.5 2zM167 94.001c8 0 16.1631 0.666992 24.4961 2s16 5.5 23 12.5s12.833 18.167 17.5 33.5s7 37.333 7 66c0 28 -2 49.167 -6 63.5
s-8.33301 24.5 -13 30.5c-3.33301 4.66699 -8.66602 9.16699 -15.999 13.5s-19.666 6.5 -36.999 6.5s-29.666 -2.16699 -36.999 -6.5s-12.666 -8.83301 -15.999 -13.5c-4.66699 -6 -9.16699 -16.167 -13.5 -30.5s-6.5 -35.5 -6.5 -63.5c0 -28.667 2.33301 -50.667 7 -66
s10.5 -26.5 17.5 -33.5s14.833 -11.167 23.5 -12.5s17 -2 25 -2z" />
    <glyph glyph-name="nine" unicode="9" horiz-adv-x="368" 
d="M156 0c-25.333 0 -48.1641 4.99609 -68.4971 14.9961s-37.5 24.667 -51.5 44c-24 34 -36 79 -36 135v32h94v-32c0 -25.333 2.5 -44.666 7.5 -57.999s11 -23.166 18 -29.499s13.833 -10 20.5 -11s12 -1.5 16 -1.5c13.333 0 24.166 5.5 32.499 16.5
s14.666 24.5 18.999 40.5s7.16602 33 8.49902 51s2 34.333 2 49v7c-20 -9.33301 -40.667 -14 -62 -14c-52.667 0 -92.667 20.333 -120 61c-24 36 -36 85.667 -36 149v74c0 56 11.667 102.667 35 140c14 22.667 31.333 39.834 52 51.501s43.667 17.5 69 17.5
c52 0 92 -18.667 120 -56c24.667 -34 37 -77.667 37 -131v-96v-2v-201c0 -36.667 -2.83301 -69.5 -8.5 -98.5s-13.834 -53.833 -24.501 -74.5c-13.333 -25.333 -30.666 -44.666 -51.999 -57.999s-45.333 -20 -72 -20zM156.002 642.996
c-15.333 0 -27.167 -5.49707 -35.5 -16.4971s-14.5 -23.167 -18.5 -36.5s-6.33301 -26.333 -7 -39s-1 -20.334 -1 -23.001v-74c0 -28.667 2.33301 -50.834 7 -66.501s10.167 -27 16.5 -34s13 -11.167 20 -12.5s13.167 -2 18.5 -2c14.667 0 26.167 5.16699 34.5 15.5
s14.5 22.166 18.5 35.499s6.5 26.166 7.5 38.499s1.5 20.5 1.5 24.5v97c0 23.333 -2.5 41.333 -7.5 54s-10.833 21.834 -17.5 27.501s-13.5 9 -20.5 10s-12.5 1.5 -16.5 1.5z" />
    <glyph glyph-name="colon" unicode=":" horiz-adv-x="146" 
d="M0 577h94v-139h-94v139zM0 163v139h94v-139h-94z" />
    <glyph glyph-name="semicolon" unicode=";" horiz-adv-x="158" 
d="M0 577h94v-139h-94v139zM0 206v96h94v-191z" />
    <glyph glyph-name="less" unicode="&#x3c;" 
 />
    <glyph glyph-name="equal" unicode="=" 
d="M307 527v-94h-307v94h307zM307 307v-94h-307v94h307z" />
    <glyph glyph-name="greater" unicode="&#x3e;" 
 />
    <glyph glyph-name="question" unicode="?" horiz-adv-x="364" 
d="M313 533l-0.996094 0.000976562c-0.666992 -26.667 -5.16699 -51.167 -13.5 -73.5s-18 -42.333 -29 -60s-22.5 -33.167 -34.5 -46.5s-22.333 -24.333 -31 -33l-12 -12c-7.33301 -9.33301 -11.666 -21.333 -12.999 -36s-2 -34.667 -2 -60v-50h-95v50
c0 14.667 0.166992 29.167 0.5 43.5s1.66602 28 3.99902 41s6.16602 25.5 11.499 37.5s12.666 23.667 21.999 35c2.66699 2.66699 5.33398 5.5 8.00098 8.5s5.66699 6.16699 9 9.5l24 25c9.33301 10 18.166 21.333 26.499 34s15.333 26.667 21 42s8.83398 32 9.50098 50
c0 10 -1.16699 21.167 -3.5 33.5s-5.83301 23.833 -10.5 34.5s-10.834 19.5 -18.501 26.5s-17.5 10.5 -29.5 10.5c-4.66699 0 -10.5 -0.5 -17.5 -1.5s-13.833 -5 -20.5 -12s-12.334 -18 -17.001 -33s-7 -36.167 -7 -63.5v-47h-94v47c0 60.667 12 108.667 36 144
c28 40 68 60 120 60c25.333 0 48.5 -5.83301 69.5 -17.5s38.5 -28.834 52.5 -51.501c21.333 -34 32.666 -76 33.999 -126h1v-9zM82.0039 106.001h94v-106h-94v106z" />
    <glyph glyph-name="at" unicode="@" horiz-adv-x="692" 
d="M567 188l55.998 -76.0049l-38 -28c-36 -25.333 -75.667 -44.666 -119 -57.999s-87.666 -20 -132.999 -20c-38 0 -74.833 4.5 -110.5 13.5s-68.834 23.167 -99.501 42.5c-53.333 32 -92 75.333 -116 130c-26 58 -33 125 -21 201c13.333 82.667 47 151.667 101 207
c24 24.667 51.167 45.167 81.5 61.5s62.5 28.166 96.5 35.499c32 6.66699 63.667 8.83398 95 6.50098s61 -8.83301 89 -19.5s53.667 -25.167 77 -43.5s43.333 -40.166 60 -65.499c11.333 -18.667 20.666 -39.834 27.999 -63.501s12 -48.834 14 -75.501
c1.33301 -25.333 0.333008 -50.166 -3 -74.499s-9.33301 -46.833 -18 -67.5c-8 -21.333 -20.667 -40.666 -38 -57.999s-37.666 -32 -60.999 -44c-22.667 -11.333 -45.167 -18.833 -67.5 -22.5s-42.5 -3.16699 -60.5 1.5c-27.333 8 -46.333 23.667 -57 47
c-9.33301 -1.33301 -18.333 -2.16602 -27 -2.49902s-16.667 -0.5 -24 -0.5c-46 0 -80.333 13 -103 39c-24 27.333 -32.667 67 -26 119c6 48 20.667 84.667 44 110c26.667 30 63.334 45 110.001 45c9.33301 0 19.166 -0.5 29.499 -1.5s21.166 -3.16699 32.499 -6.5l1 11
l94 -16l-8 -47l-2 -12.5l-5 -31.5l-7 -42.5l-8 -46.5c-2.66699 -15.333 -5 -29.5 -7 -42.5s-3.66699 -23.167 -5 -30.5c4.66699 0 10.5 0.666992 17.5 2s15.167 4 24.5 8c16 6.66699 29.833 15 41.5 25s19.5 20.667 23.5 32c6 14.667 10.167 30.834 12.5 48.501
s2.83301 35.334 1.5 53.001s-4.16602 34.667 -8.49902 51s-10.5 30.5 -18.5 42.5c-11.333 16.667 -24.833 31.334 -40.5 44.001s-33.167 22.5 -52.5 29.5s-40 11.167 -62 12.5s-44.333 -0.333984 -67 -5.00098c-54.667 -11.333 -100.167 -37 -136.5 -77
s-59.166 -90 -68.499 -150c-8.66699 -53.333 -5.16699 -100 10.5 -140s43.5 -72 83.5 -96c25.333 -15.333 53.5 -26.5 84.5 -33.5s62.5 -9.66699 94.5 -8s63.333 7.66699 94 18s58.334 24.5 83.001 42.5zM271.998 308.995c23.333 0 37.0029 2 41.0029 6
c3.33301 3.33301 7.16602 11 11.499 23s9.16602 33 14.499 63c1.33301 8.66699 1.83301 14.667 1.5 18s-0.833008 5.66602 -1.5 6.99902c-2 1.33301 -6.5 2.83301 -13.5 4.5s-16.5 2.5 -28.5 2.5c-7.33301 0 -14.166 -0.666992 -20.499 -2s-12.166 -4.33301 -17.499 -9
s-10 -11.667 -14 -21s-7 -22.333 -9 -39c-2.66699 -25.333 -1.33398 -40.666 3.99902 -45.999c1.33301 -1.33301 4.66602 -2.83301 9.99902 -4.5s12.666 -2.5 21.999 -2.5z" />
    <glyph glyph-name="A" unicode="A" horiz-adv-x="437" 
d="M97 0h-97l170 737h75l172 -737h-98l-47 206h-128zM208 481l-42 -181h84z" />
    <glyph glyph-name="B" unicode="B" horiz-adv-x="376" 
d="M272 369c4 -4 6.66699 -7.33301 8 -10c28.667 -34.667 43 -85.334 43 -152.001c0 -67.333 -14.333 -117.666 -43 -150.999c-30 -37.333 -76 -56 -138 -56h-48h-94v94v643h142c62.667 0 108.667 -18.667 138 -56c28.667 -33.333 43 -83.666 43 -150.999
c0 -66.667 -14.333 -117.334 -43 -152.001c-1.33301 -2 -4 -5 -8 -9zM94 416l48.0029 -0.000976562c21.333 0 36.666 2.5 45.999 7.5s15.666 9.83301 18.999 14.5c14 16.667 21 47.334 21 92.001c0 26 -2.16699 46.5 -6.5 61.5s-10.333 26.333 -18 34
s-16.834 12.5 -27.501 14.5s-22 3 -34 3h-48v-227zM142.003 93.999c12 0 23.333 1 34 3s19.834 6.83301 27.501 14.5s13.667 19 18 34s6.5 35.5 6.5 61.5c0 26.667 -2.33301 47.667 -7 63s-10.834 26.833 -18.501 34.5s-16.667 12.5 -27 14.5s-21.5 3 -33.5 3h-48v-228h48z
" />
    <glyph glyph-name="C" unicode="C" horiz-adv-x="388" 
d="M175 0c-18 0 -34 1.83301 -48 5.5s-26.5 8.33398 -37.5 14.001s-20.333 12 -28 19s-14.167 13.833 -19.5 20.5c-28 36 -42 86.667 -42 152v316c0 65.333 14 116 42 152c10.667 13.333 26.5 26.333 47.5 39s49.5 19 85.5 19s64.333 -6.33301 85 -19
s36.334 -25.667 47.001 -39c28.667 -36.667 43 -87.334 43 -152.001v-47h-95v47c0 28.667 -2.83301 51 -8.5 67s-12.667 27.5 -21 34.5s-17.166 11.167 -26.499 12.5s-17.333 2 -24 2c-7.33301 0 -15.5 -0.666992 -24.5 -2s-17.833 -5.5 -26.5 -12.5
s-15.834 -18.5 -21.501 -34.5s-8.5 -38.333 -8.5 -67v-316c0 -43.333 7.66699 -74.666 23 -93.999c3.33301 -4.66699 9.33301 -9.66699 18 -15s22 -8 40 -8s31.167 2.66699 39.5 8s14.5 10.333 18.5 15c14.667 20 22 51.333 22 94v47h95v-47
c0 -64.667 -14.333 -115.334 -43 -152.001c-10.667 -13.333 -26.334 -26.5 -47.001 -39.5s-49 -19.5 -85 -19.5z" />
    <glyph glyph-name="D" unicode="D" horiz-adv-x="392" 
d="M147 0l-147 -0.000976562v737h147c63.333 0 111 -19.667 143 -59c29.333 -35.333 44 -86.666 44 -153.999v-310c0 -67.333 -14.667 -119 -44 -155c-32 -39.333 -79.667 -59 -143 -59zM94 93.999h53c12 0 23.5 1.16699 34.5 3.5s20.667 7.5 29 15.5s15.166 20 20.499 36
s8 37.667 8 65v310c0 27.333 -2.66699 49 -8 65s-12.166 28 -20.499 36s-18 13 -29 15s-22.5 3 -34.5 3h-53v-549z" />
    <glyph glyph-name="E" unicode="E" horiz-adv-x="372" 
d="M305 643h-211v-227h211v-94h-211v-228h211v-94h-305v737h305v-94v0z" />
    <glyph glyph-name="F" unicode="F" horiz-adv-x="372" 
d="M305 643h-211v-227h211v-94h-211v-322h-94v737h305v-94v0z" />
    <glyph glyph-name="G" unicode="G" horiz-adv-x="413" 
d="M175 0c-35.333 0 -63.4951 6.33301 -84.4951 19s-36.833 25.667 -47.5 39c-28.667 35.333 -43 86 -43 152v318c0 66 14.333 116.667 43 152c30 38 74 57 132 57c58.667 0 103 -19 133 -57c28.667 -35.333 43 -86 43 -152v-47h-95v47c0 26.667 -2.33301 47.667 -7 63
s-10.834 26.833 -18.501 34.5s-16.334 12.5 -26.001 14.5s-19.5 3 -29.5 3s-19.833 -1 -29.5 -3s-18.334 -6.83301 -26.001 -14.5s-13.834 -19.167 -18.501 -34.5s-7 -36.333 -7 -63v-318c0 -29.333 2.83301 -51.833 8.5 -67.5s12.834 -27 21.501 -34
s17.5 -11.167 26.5 -12.5s17.167 -2 24.5 -2s15.666 0.666992 24.999 2s18.166 5.5 26.499 12.5s15.333 18.333 21 34s8.5 38.167 8.5 67.5v56h-114v95h209v-151c0 -66 -14.333 -116.667 -43 -152c-10.667 -13.333 -26.5 -26.333 -47.5 -39s-49.5 -19 -85.5 -19z" />
    <glyph glyph-name="H" unicode="H" horiz-adv-x="409" 
d="M236 737h95v-737h-95v321h-142v-321h-94v737h94v-321h142v321v0z" />
    <glyph glyph-name="I" unicode="I" horiz-adv-x="202" 
d="M124 0h-94v737h94v-737v0v0z" />
    <glyph glyph-name="J" unicode="J" horiz-adv-x="405" 
d="M165 0c-33.333 0 -59.999 6 -79.999 18s-35 24 -45 36c-26.667 33.333 -40 80.666 -40 141.999v48h94v-48c0 -25.333 2.5 -45 7.5 -59s11.167 -24.167 18.5 -30.5s15 -10 23 -11s15.333 -1.5 22 -1.5c16.667 0 28.667 2.16699 36 6.5s12.666 8.83301 15.999 13.5
c12.667 16 19 43.333 19 82v541h94v-541c0 -61.333 -13.333 -108.666 -40 -141.999c-9.33301 -12 -24 -24 -44 -36s-47 -18 -81 -18z" />
    <glyph glyph-name="K" unicode="K" horiz-adv-x="449" 
d="M410 1h-108l-168 302l-39 -61v-241h-94v267h-1l1 2v468h94v-322l209 322h113l-224 -345l217 -392v0z" />
    <glyph glyph-name="L" unicode="L" horiz-adv-x="356" 
d="M321 1h-321v737h94v-643h227v-94v0v0z" />
    <glyph glyph-name="M" unicode="M" horiz-adv-x="538" 
d="M94 354v-353h-94v737h83l149 -519l148 519h83v-737h-94v353l-102 -353h-71l-102 353v0z" />
    <glyph glyph-name="N" unicode="N" horiz-adv-x="425" 
d="M94 447v-446h-94v737h79l180 -446v446h95v-737h-80l-180 446v0z" />
    <glyph glyph-name="O" unicode="O" horiz-adv-x="405" 
d="M175 1c-35.333 0 -63.667 6.33008 -85 18.9971s-37.333 25.667 -48 39c-28 36 -42 86.667 -42 152v317c0 65.333 14 116 42 152c5.33301 6.66699 11.833 13.334 19.5 20.001s17 12.834 28 18.501s23.5 10.334 37.5 14.001s30 5.5 48 5.5c36 0 64.5 -6.33301 85.5 -19
s36.833 -25.667 47.5 -39c28 -36 42 -86.667 42 -152v-317c0 -65.333 -14 -116 -42 -152c-10.667 -13.333 -26.5 -26.333 -47.5 -39s-49.5 -19 -85.5 -19zM174.999 642.997c-7.33301 0 -15.5 -0.666992 -24.5 -2s-17.833 -5.5 -26.5 -12.5s-15.834 -18.333 -21.501 -34
s-8.5 -37.834 -8.5 -66.501v-317c0 -29.333 2.83301 -51.833 8.5 -67.5s12.834 -27 21.501 -34s17.5 -11.167 26.5 -12.5s17.167 -2 24.5 -2c6.66699 0 14.667 0.666992 24 2s18.333 5.5 27 12.5s15.834 18.333 21.501 34s8.5 38.167 8.5 67.5v317
c0 28.667 -2.83301 50.834 -8.5 66.501s-12.834 27 -21.501 34s-17.667 11.167 -27 12.5s-17.333 2 -24 2z" />
    <glyph glyph-name="P" unicode="P" horiz-adv-x="384" 
d="M94 1h-94.001v737h153c62.667 0 110.334 -18.333 143.001 -55c30 -35.333 45 -86 45 -152c0 -67.333 -15 -118.333 -45 -153c-32 -37.333 -79.667 -56 -143 -56h-59v-321zM93.999 417l59.001 0.000976562c26 0 43.667 3 53 9s15.333 10.667 18 14
c14.667 15.333 22 45.666 22 90.999c0 24 -2 43.333 -6 58s-9.83301 26 -17.5 34s-17.334 13.333 -29.001 16s-25.167 4 -40.5 4h-59v-226z" />
    <glyph glyph-name="Q" unicode="Q" horiz-adv-x="405" 
d="M296 -44l-48 58c-10 -4 -21 -7.33301 -33 -10s-25.333 -4 -40 -4c-18 -0 -34 1.83301 -48 5.5s-26.5 8.5 -37.5 14.5s-20.333 12.667 -28 20s-14.167 14.333 -19.5 21c-28 36.667 -42 87.667 -42 153v317c0 44.667 6 80.667 18 108s26.833 48.333 44.5 63
s36.667 24.334 57 29.001s38.833 7 55.5 7c16 0 34.167 -2.33301 54.5 -7s39.5 -14.334 57.5 -29.001s33 -35.667 45 -63s18 -63.333 18 -108v-317c0 -56 -10.667 -101.667 -32 -137l101 -121h-123zM182 95l-70.9971 87.999h118l21 -26c3.33301 16.667 5 35.667 5 57v317
c0 26 -2.33301 46.333 -7 61s-10.834 25.834 -18.501 33.501s-16.167 12.5 -25.5 14.5s-19 3 -29 3s-19.833 -1 -29.5 -3s-18.334 -6.83301 -26.001 -14.5s-13.834 -18.834 -18.501 -33.501s-7 -35 -7 -61v-317c0 -44 7.66699 -75.667 23 -95
c4 -5.33301 10.167 -10.666 18.5 -15.999s21.5 -8 39.5 -8h7z" />
    <glyph glyph-name="R" unicode="R" horiz-adv-x="417" 
d="M286 363c18 -17.333 31.833 -38 41.5 -62s14.5 -51.333 14.5 -82v-218h-95v218c0 64.667 -31.333 97 -94 97h-47h-12v-315h-94v737h153c63.333 0 111 -18.667 143 -56c29.333 -34 44 -85.333 44 -154c0 -68 -14.667 -119.667 -44 -155
c-1.33301 -1.33301 -2.83301 -3 -4.5 -5s-3.5 -3.66699 -5.5 -5zM153 411c25.333 0 42.833 3 52.5 9s15.834 10.667 18.501 14c14.667 18.667 22 50 22 94c0 24.667 -2 44.5 -6 59.5s-9.83301 26.667 -17.5 35s-17.334 13.833 -29.001 16.5s-25.167 4 -40.5 4h-59v-232h12
h47z" />
    <glyph glyph-name="S" unicode="S" horiz-adv-x="397" 
d="M176 1c-58.667 0 -102.998 19 -132.998 57c-28.667 35.333 -43 86 -43 152v47h94v-47c0 -43.333 7.66699 -74.333 23 -93c3.33301 -4.66699 9.33301 -9.5 18 -14.5s22.334 -7.5 41.001 -7.5c18 0 32.333 3.83301 43 11.5s18.834 17 24.501 28s9.33398 23 11.001 36
s2.5 24.5 2.5 34.5c0 17.333 -2.66699 32 -8 44s-12.333 22.167 -21 30.5s-18.334 15.333 -29.001 21s-21.334 10.834 -32.001 15.501l-18 8c-10.667 4.66699 -24.167 11.167 -40.5 19.5s-32.5 20.166 -48.5 35.499c-40 38.667 -60 88 -60 148c0 31.333 4.16699 60 12.5 86
s20.333 48.167 36 66.5s34.334 32.666 56.001 42.999s45.5 15.5 71.5 15.5c36 0 64.5 -6.33301 85.5 -19s36.833 -25.667 47.5 -39c28.667 -36.667 43 -87.667 43 -153v-47h-95v47c0 28.667 -2.83301 51 -8.5 67s-12.834 27.5 -21.501 34.5s-17.667 11.167 -27 12.5
s-17.333 2 -24 2c-19.333 0 -34.333 -4.66699 -45 -14s-18.834 -20.5 -24.501 -33.5s-9.16699 -26 -10.5 -39s-2 -22.833 -2 -29.5c0 -17.333 2.66699 -32.166 8 -44.499s12.333 -23 21 -32s18.5 -16.667 29.5 -23s22.5 -11.833 34.5 -16.5l16 -7
c9.33301 -4 22.166 -9.83301 38.499 -17.5s32.5 -19.167 48.5 -34.5c41.333 -38 62 -87 62 -147c0 -56.667 -14 -103.667 -42 -141c-32.667 -42 -77.334 -63 -134.001 -63z" />
    <glyph glyph-name="T" unicode="T" horiz-adv-x="461" 
d="M417 738v-95h-161v-642h-95v642h-161v95h417v0z" />
    <glyph glyph-name="U" unicode="U" horiz-adv-x="405" 
d="M165 1c-33.333 0 -60 5.83301 -80 17.5s-35 24.167 -45 37.5c-26.667 32.667 -40 79.667 -40 141v541h94v-541c0 -25.333 2.5 -45 7.5 -59s11.167 -24.167 18.5 -30.5s15 -10 23 -11s15.333 -1.5 22 -1.5s14 0.5 22 1.5s15.667 4.66699 23 11s13.5 16.5 18.5 30.5
s7.5 33.667 7.5 59v541h94v-541c0 -61.333 -13.333 -108.333 -40 -141c-10 -13.333 -25 -25.833 -45 -37.5s-46.667 -17.5 -80 -17.5z" />
    <glyph glyph-name="V" unicode="V" horiz-adv-x="461" 
d="M345 738h97l-185 -737h-74l-183 737h97l123 -495l125 495v0z" />
    <glyph glyph-name="W" unicode="W" horiz-adv-x="720" 
d="M588 737h97l-163 -737h-76l-103 471l-104 -471h-76l-163 737h97l104 -470l104 470h76l103 -470l104 470v0z" />
    <glyph glyph-name="X" unicode="X" horiz-adv-x="498" 
d="M454 737l-175 -368l173 -369h-104l-121 258l-122 -258h-105l174 369l-171 368h105l119 -257l122 257h105v0z" />
    <glyph glyph-name="Y" unicode="Y" horiz-adv-x="506" 
d="M377 737h108l-211 -380v-357h-94v357l-210 380h108l149 -270l150 270v0z" />
    <glyph glyph-name="Z" unicode="Z" horiz-adv-x="457" 
d="M122 94h274v-94h-380v92l258 551h-274v94h380v-91l-258 -552v0z" />
    <glyph glyph-name="bracketleft" unicode="[" 
 />
    <glyph glyph-name="backslash" unicode="\" horiz-adv-x="384" 
d="M101 737l273 -737h-101l-273 737h101v0z" />
    <glyph glyph-name="bracketright" unicode="]" 
 />
    <glyph glyph-name="asciicircum" unicode="^" 
 />
    <glyph glyph-name="underscore" unicode="_" horiz-adv-x="465" 
d="M467 -36h-467v36h467v-36zM0 -59h467v-36h-467v36z" />
    <glyph glyph-name="grave" unicode="`" horiz-adv-x="158" 
d="M0 739h94v-151h-94v151zM35 623h24v80h-24v-80z" />
    <glyph glyph-name="a" unicode="a" horiz-adv-x="437" 
d="M97 0h-97l170 737h75l172 -737h-98l-47 206h-128zM208 481l-42 -181h84z" />
    <glyph glyph-name="b" unicode="b" horiz-adv-x="376" 
d="M272 369c4 -4 6.66699 -7.33301 8 -10c28.667 -34.667 43 -85.334 43 -152.001c0 -67.333 -14.333 -117.666 -43 -150.999c-30 -37.333 -76 -56 -138 -56h-48h-94v94v643h142c62.667 0 108.667 -18.667 138 -56c28.667 -33.333 43 -83.666 43 -150.999
c0 -66.667 -14.333 -117.334 -43 -152.001c-1.33301 -2 -4 -5 -8 -9zM94 416l48.0029 -0.000976562c21.333 0 36.666 2.5 45.999 7.5s15.666 9.83301 18.999 14.5c14 16.667 21 47.334 21 92.001c0 26 -2.16699 46.5 -6.5 61.5s-10.333 26.333 -18 34
s-16.834 12.5 -27.501 14.5s-22 3 -34 3h-48v-227zM142.003 93.999c12 0 23.333 1 34 3s19.834 6.83301 27.501 14.5s13.667 19 18 34s6.5 35.5 6.5 61.5c0 26.667 -2.33301 47.667 -7 63s-10.834 26.833 -18.501 34.5s-16.667 12.5 -27 14.5s-21.5 3 -33.5 3h-48v-228h48z
" />
    <glyph glyph-name="c" unicode="c" horiz-adv-x="388" 
d="M175 0c-18 0 -34 1.83301 -48 5.5s-26.5 8.33398 -37.5 14.001s-20.333 12 -28 19s-14.167 13.833 -19.5 20.5c-28 36 -42 86.667 -42 152v316c0 65.333 14 116 42 152c10.667 13.333 26.5 26.333 47.5 39s49.5 19 85.5 19s64.333 -6.33301 85 -19
s36.334 -25.667 47.001 -39c28.667 -36.667 43 -87.334 43 -152.001v-47h-95v47c0 28.667 -2.83301 51 -8.5 67s-12.667 27.5 -21 34.5s-17.166 11.167 -26.499 12.5s-17.333 2 -24 2c-7.33301 0 -15.5 -0.666992 -24.5 -2s-17.833 -5.5 -26.5 -12.5
s-15.834 -18.5 -21.501 -34.5s-8.5 -38.333 -8.5 -67v-316c0 -43.333 7.66699 -74.666 23 -93.999c3.33301 -4.66699 9.33301 -9.66699 18 -15s22 -8 40 -8s31.167 2.66699 39.5 8s14.5 10.333 18.5 15c14.667 20 22 51.333 22 94v47h95v-47
c0 -64.667 -14.333 -115.334 -43 -152.001c-10.667 -13.333 -26.334 -26.5 -47.001 -39.5s-49 -19.5 -85 -19.5z" />
    <glyph glyph-name="d" unicode="d" horiz-adv-x="392" 
d="M147 0l-147 -0.000976562v737h147c63.333 0 111 -19.667 143 -59c29.333 -35.333 44 -86.666 44 -153.999v-310c0 -67.333 -14.667 -119 -44 -155c-32 -39.333 -79.667 -59 -143 -59zM94 93.999h53c12 0 23.5 1.16699 34.5 3.5s20.667 7.5 29 15.5s15.166 20 20.499 36
s8 37.667 8 65v310c0 27.333 -2.66699 49 -8 65s-12.166 28 -20.499 36s-18 13 -29 15s-22.5 3 -34.5 3h-53v-549z" />
    <glyph glyph-name="e" unicode="e" horiz-adv-x="372" 
d="M305 643h-211v-227h211v-94h-211v-228h211v-94h-305v737h305v-94v0z" />
    <glyph glyph-name="f" unicode="f" horiz-adv-x="372" 
d="M305 643h-211v-227h211v-94h-211v-322h-94v737h305v-94v0z" />
    <glyph glyph-name="g" unicode="g" horiz-adv-x="413" 
d="M175 0c-35.333 0 -63.4951 6.33301 -84.4951 19s-36.833 25.667 -47.5 39c-28.667 35.333 -43 86 -43 152v318c0 66 14.333 116.667 43 152c30 38 74 57 132 57c58.667 0 103 -19 133 -57c28.667 -35.333 43 -86 43 -152v-47h-95v47c0 26.667 -2.33301 47.667 -7 63
s-10.834 26.833 -18.501 34.5s-16.334 12.5 -26.001 14.5s-19.5 3 -29.5 3s-19.833 -1 -29.5 -3s-18.334 -6.83301 -26.001 -14.5s-13.834 -19.167 -18.501 -34.5s-7 -36.333 -7 -63v-318c0 -29.333 2.83301 -51.833 8.5 -67.5s12.834 -27 21.501 -34
s17.5 -11.167 26.5 -12.5s17.167 -2 24.5 -2s15.666 0.666992 24.999 2s18.166 5.5 26.499 12.5s15.333 18.333 21 34s8.5 38.167 8.5 67.5v56h-114v95h209v-151c0 -66 -14.333 -116.667 -43 -152c-10.667 -13.333 -26.5 -26.333 -47.5 -39s-49.5 -19 -85.5 -19z" />
    <glyph glyph-name="h" unicode="h" horiz-adv-x="409" 
d="M236 737h95v-737h-95v321h-142v-321h-94v737h94v-321h142v321v0z" />
    <glyph glyph-name="i" unicode="i" horiz-adv-x="202" 
d="M124 0h-94v737h94v-737v0v0z" />
    <glyph glyph-name="j" unicode="j" horiz-adv-x="405" 
d="M165 0c-33.333 0 -59.999 6 -79.999 18s-35 24 -45 36c-26.667 33.333 -40 80.666 -40 141.999v48h94v-48c0 -25.333 2.5 -45 7.5 -59s11.167 -24.167 18.5 -30.5s15 -10 23 -11s15.333 -1.5 22 -1.5c16.667 0 28.667 2.16699 36 6.5s12.666 8.83301 15.999 13.5
c12.667 16 19 43.333 19 82v541h94v-541c0 -61.333 -13.333 -108.666 -40 -141.999c-9.33301 -12 -24 -24 -44 -36s-47 -18 -81 -18z" />
    <glyph glyph-name="k" unicode="k" horiz-adv-x="449" 
d="M410 1h-108l-168 302l-39 -61v-241h-94v267h-1l1 2v468h94v-322l209 322h113l-224 -345l217 -392v0z" />
    <glyph glyph-name="l" unicode="l" horiz-adv-x="356" 
d="M321 1h-321v737h94v-643h227v-94v0v0z" />
    <glyph glyph-name="m" unicode="m" horiz-adv-x="538" 
d="M94 354v-353h-94v737h83l149 -519l148 519h83v-737h-94v353l-102 -353h-71l-102 353v0z" />
    <glyph glyph-name="n" unicode="n" horiz-adv-x="425" 
d="M94 447v-446h-94v737h79l180 -446v446h95v-737h-80l-180 446v0z" />
    <glyph glyph-name="o" unicode="o" horiz-adv-x="405" 
d="M175 1c-35.333 0 -63.667 6.33008 -85 18.9971s-37.333 25.667 -48 39c-28 36 -42 86.667 -42 152v317c0 65.333 14 116 42 152c5.33301 6.66699 11.833 13.334 19.5 20.001s17 12.834 28 18.501s23.5 10.334 37.5 14.001s30 5.5 48 5.5c36 0 64.5 -6.33301 85.5 -19
s36.833 -25.667 47.5 -39c28 -36 42 -86.667 42 -152v-317c0 -65.333 -14 -116 -42 -152c-10.667 -13.333 -26.5 -26.333 -47.5 -39s-49.5 -19 -85.5 -19zM174.999 642.997c-7.33301 0 -15.5 -0.666992 -24.5 -2s-17.833 -5.5 -26.5 -12.5s-15.834 -18.333 -21.501 -34
s-8.5 -37.834 -8.5 -66.501v-317c0 -29.333 2.83301 -51.833 8.5 -67.5s12.834 -27 21.501 -34s17.5 -11.167 26.5 -12.5s17.167 -2 24.5 -2c6.66699 0 14.667 0.666992 24 2s18.333 5.5 27 12.5s15.834 18.333 21.501 34s8.5 38.167 8.5 67.5v317
c0 28.667 -2.83301 50.834 -8.5 66.501s-12.834 27 -21.501 34s-17.667 11.167 -27 12.5s-17.333 2 -24 2z" />
    <glyph glyph-name="p" unicode="p" horiz-adv-x="384" 
d="M94 1h-94.001v737h153c62.667 0 110.334 -18.333 143.001 -55c30 -35.333 45 -86 45 -152c0 -67.333 -15 -118.333 -45 -153c-32 -37.333 -79.667 -56 -143 -56h-59v-321zM93.999 417l59.001 0.000976562c26 0 43.667 3 53 9s15.333 10.667 18 14
c14.667 15.333 22 45.666 22 90.999c0 24 -2 43.333 -6 58s-9.83301 26 -17.5 34s-17.334 13.333 -29.001 16s-25.167 4 -40.5 4h-59v-226z" />
    <glyph glyph-name="q" unicode="q" horiz-adv-x="405" 
d="M296 -44l-48 58c-10 -4 -21 -7.33301 -33 -10s-25.333 -4 -40 -4c-18 -0 -34 1.83301 -48 5.5s-26.5 8.5 -37.5 14.5s-20.333 12.667 -28 20s-14.167 14.333 -19.5 21c-28 36.667 -42 87.667 -42 153v317c0 44.667 6 80.667 18 108s26.833 48.333 44.5 63
s36.667 24.334 57 29.001s38.833 7 55.5 7c16 0 34.167 -2.33301 54.5 -7s39.5 -14.334 57.5 -29.001s33 -35.667 45 -63s18 -63.333 18 -108v-317c0 -56 -10.667 -101.667 -32 -137l101 -121h-123zM182 95l-70.9971 87.999h118l21 -26c3.33301 16.667 5 35.667 5 57v317
c0 26 -2.33301 46.333 -7 61s-10.834 25.834 -18.501 33.501s-16.167 12.5 -25.5 14.5s-19 3 -29 3s-19.833 -1 -29.5 -3s-18.334 -6.83301 -26.001 -14.5s-13.834 -18.834 -18.501 -33.501s-7 -35 -7 -61v-317c0 -44 7.66699 -75.667 23 -95
c4 -5.33301 10.167 -10.666 18.5 -15.999s21.5 -8 39.5 -8h7z" />
    <glyph glyph-name="r" unicode="r" horiz-adv-x="417" 
d="M286 363c18 -17.333 31.833 -38 41.5 -62s14.5 -51.333 14.5 -82v-218h-95v218c0 64.667 -31.333 97 -94 97h-47h-12v-315h-94v737h153c63.333 0 111 -18.667 143 -56c29.333 -34 44 -85.333 44 -154c0 -68 -14.667 -119.667 -44 -155
c-1.33301 -1.33301 -2.83301 -3 -4.5 -5s-3.5 -3.66699 -5.5 -5zM153 411c25.333 0 42.833 3 52.5 9s15.834 10.667 18.501 14c14.667 18.667 22 50 22 94c0 24.667 -2 44.5 -6 59.5s-9.83301 26.667 -17.5 35s-17.334 13.833 -29.001 16.5s-25.167 4 -40.5 4h-59v-232h12
h47z" />
    <glyph glyph-name="s" unicode="s" horiz-adv-x="397" 
d="M176 1c-58.667 0 -102.998 19 -132.998 57c-28.667 35.333 -43 86 -43 152v47h94v-47c0 -43.333 7.66699 -74.333 23 -93c3.33301 -4.66699 9.33301 -9.5 18 -14.5s22.334 -7.5 41.001 -7.5c18 0 32.333 3.83301 43 11.5s18.834 17 24.501 28s9.33398 23 11.001 36
s2.5 24.5 2.5 34.5c0 17.333 -2.66699 32 -8 44s-12.333 22.167 -21 30.5s-18.334 15.333 -29.001 21s-21.334 10.834 -32.001 15.501l-18 8c-10.667 4.66699 -24.167 11.167 -40.5 19.5s-32.5 20.166 -48.5 35.499c-40 38.667 -60 88 -60 148c0 31.333 4.16699 60 12.5 86
s20.333 48.167 36 66.5s34.334 32.666 56.001 42.999s45.5 15.5 71.5 15.5c36 0 64.5 -6.33301 85.5 -19s36.833 -25.667 47.5 -39c28.667 -36.667 43 -87.667 43 -153v-47h-95v47c0 28.667 -2.83301 51 -8.5 67s-12.834 27.5 -21.501 34.5s-17.667 11.167 -27 12.5
s-17.333 2 -24 2c-19.333 0 -34.333 -4.66699 -45 -14s-18.834 -20.5 -24.501 -33.5s-9.16699 -26 -10.5 -39s-2 -22.833 -2 -29.5c0 -17.333 2.66699 -32.166 8 -44.499s12.333 -23 21 -32s18.5 -16.667 29.5 -23s22.5 -11.833 34.5 -16.5l16 -7
c9.33301 -4 22.166 -9.83301 38.499 -17.5s32.5 -19.167 48.5 -34.5c41.333 -38 62 -87 62 -147c0 -56.667 -14 -103.667 -42 -141c-32.667 -42 -77.334 -63 -134.001 -63z" />
    <glyph glyph-name="t" unicode="t" horiz-adv-x="461" 
d="M417 738v-95h-161v-642h-95v642h-161v95h417v0z" />
    <glyph glyph-name="u" unicode="u" horiz-adv-x="405" 
d="M165 1c-33.333 0 -60 5.83301 -80 17.5s-35 24.167 -45 37.5c-26.667 32.667 -40 79.667 -40 141v541h94v-541c0 -25.333 2.5 -45 7.5 -59s11.167 -24.167 18.5 -30.5s15 -10 23 -11s15.333 -1.5 22 -1.5s14 0.5 22 1.5s15.667 4.66699 23 11s13.5 16.5 18.5 30.5
s7.5 33.667 7.5 59v541h94v-541c0 -61.333 -13.333 -108.333 -40 -141c-10 -13.333 -25 -25.833 -45 -37.5s-46.667 -17.5 -80 -17.5z" />
    <glyph glyph-name="v" unicode="v" horiz-adv-x="461" 
d="M345 738h97l-185 -737h-74l-183 737h97l123 -495l125 495v0z" />
    <glyph glyph-name="w" unicode="w" horiz-adv-x="720" 
d="M588 737h97l-163 -737h-76l-103 471l-104 -471h-76l-163 737h97l104 -470l104 470h76l103 -470l104 470v0z" />
    <glyph glyph-name="x" unicode="x" horiz-adv-x="498" 
d="M454 737l-175 -368l173 -369h-104l-121 258l-122 -258h-105l174 369l-171 368h105l119 -257l122 257h105v0z" />
    <glyph glyph-name="y" unicode="y" horiz-adv-x="506" 
d="M377 737h108l-211 -380v-357h-94v357l-210 380h108l149 -270l150 270v0z" />
    <glyph glyph-name="z" unicode="z" horiz-adv-x="457" 
d="M122 94h274v-94h-380v92l258 551h-274v94h380v-91l-258 -552v0z" />
    <glyph glyph-name="braceleft" unicode="{" 
 />
    <glyph glyph-name="bar" unicode="|" horiz-adv-x="202" 
d="M124 0h-94v737h94v-737v0v0z" />
    <glyph glyph-name="braceright" unicode="}" 
 />
    <glyph glyph-name="asciitilde" unicode="~" 
 />
    <glyph glyph-name="copyright" unicode="&#xa9;" 
 />
    <glyph glyph-name="registered" unicode="&#xae;" 
 />
    <glyph glyph-name="dotlessi" unicode="&#x131;" horiz-adv-x="202" 
d="M124 0h-94v737h94v-737v0v0z" />
    <glyph glyph-name="circumflex" unicode="&#x2c6;" 
 />
    <glyph glyph-name="caron" unicode="&#x2c7;" 
 />
    <glyph glyph-name="breve" unicode="&#x2d8;" 
 />
    <glyph glyph-name="dotaccent" unicode="&#x2d9;" 
 />
    <glyph glyph-name="ring" unicode="&#x2da;" 
 />
    <glyph glyph-name="ogonek" unicode="&#x2db;" 
 />
    <glyph glyph-name="tilde" unicode="&#x2dc;" 
 />
    <glyph glyph-name="hungarumlaut" unicode="&#x2dd;" 
 />
    <glyph glyph-name="endash" unicode="&#x2013;" horiz-adv-x="376" 
d="M307 417v-94h-307v94h307v0z" />
    <glyph glyph-name="emdash" unicode="&#x2014;" horiz-adv-x="376" 
d="M307 417v-94h-307v94h307v0z" />
    <glyph glyph-name="quoteleft" unicode="&#x2018;" horiz-adv-x="158" 
d="M0 737h94v-151h-94v151z" />
    <glyph glyph-name="quoteright" unicode="&#x2019;" horiz-adv-x="158" 
d="M0 737h94v-151h-94v151z" />
    <glyph glyph-name="quotedblleft" unicode="&#x201c;" horiz-adv-x="283" 
d="M0 586v151h94v-151h-94zM139 737h94v-151h-94v151z" />
    <glyph glyph-name="quotedblright" unicode="&#x201d;" horiz-adv-x="283" 
d="M0 586v151h94v-151h-94zM139 737h94v-151h-94v151z" />
    <glyph glyph-name="bullet" unicode="&#x2022;" 
 />
    <glyph glyph-name="trademark" unicode="&#x2122;" horiz-adv-x="999" 
 />
    <glyph glyph-name=".null" horiz-adv-x="0" 
 />
    <glyph glyph-name="nonmarkingreturn" horiz-adv-x="308" 
 />
    <glyph glyph-name="glyph103" horiz-adv-x="0" 
 />
  </font>
</defs>
</svg>
